<svg width="57" height="57" viewBox="0 0 57 57" xmlns="http://www.w3.org/2000/svg"><g fill="none" fill-rule="evenodd"><rect fill="#E5F2FF" width="57" height="57" rx="28.5"/><path d="M39.13 34.816c-1.45-1.455-3.285-2.522-5.025-3.395a5.283 5.283 0 0 0-1.16-.388c-.773-.194-1.642-.388-1.74-1.455 0-.194 0-.679.098-.873.193-.485.58-.775.966-1.163.676-.582 1.16-1.358 1.45-2.62 0 0 0-.096.096-.096.387-.194.677-.679.677-1.358 0-.485-.194-.873-.387-1.164v-.097c0-4.364-2.513-6.207-5.605-6.207-3.092 0-5.508 1.843-5.605 6.207v.097c-.29.291-.387.68-.387 1.164 0 .582.29 1.164.677 1.358l.097.097c.29 1.26.773 2.037 1.45 2.619.386.388.772.581.965 1.163.097.291.097.68.097.873-.097 1.067-.966 1.261-1.74 1.455-.483.194-.966.291-1.159.388-1.836.873-3.672 1.94-5.025 3.395a3.483 3.483 0 0 0-.87 2.327v.485c0 1.358 1.16 2.522 2.513 2.522h17.974c1.353 0 2.513-1.164 2.513-2.522v-.485c0-.873-.29-1.648-.87-2.327z" fill="#2D91FF" fill-rule="nonzero"/></g></svg>