<svg xmlns="http://www.w3.org/2000/svg" width="18" height="18" fill="none"><path fill="#83DCFF" d="M1.03 3.029h15.33v3.92H1.03z"/><path fill="#3AA6D2" fill-rule="evenodd" d="M2.77 17.58h12a2.74 2.74 0 0 0 2.71-2.74V4.62a2.74 2.74 0 0 0-2.74-2.74h-12A2.74 2.74 0 0 0 0 4.62v10.22a2.74 2.74 0 0 0 2.77 2.74zM1.944 3.805a1.14 1.14 0 0 1 .826-.323h11.97a1.15 1.15 0 0 1 1.14 1.14v10.24A1.15 1.15 0 0 1 14.74 16h-12a1.15 1.15 0 0 1-1.14-1.16V4.62c0-.308.124-.602.344-.817z" clip-rule="evenodd"/><rect width="1.34" height="5" x="4.32" fill="#3AA6D2" rx=".67"/><rect width="1.34" height="5" x="11.8" fill="#3AA6D2" rx=".67"/><path fill="#3AA6D2" d="M1.03 6.381h15.33v1.14H1.03z"/></svg>