<svg width="15" height="15" xmlns="http://www.w3.org/2000/svg"><title>47FE75BC-D656-410C-9A99-A70F0639B346</title><g transform="translate(-8 -8)" fill="none" fill-rule="evenodd"><path d="M0 0h32v32H0z"/><rect fill="#E7EAED" x="8" y="8" width="15" height="15" rx="6"/><path d="M18.485 12.515a1 1 0 0 1 0 1.414l-1.413 1.413 1.413 1.415a1 1 0 1 1-1.414 1.415l-1.414-1.415-1.414 1.415a1 1 0 1 1-1.415-1.415l1.415-1.414-1.415-1.414a1 1 0 0 1 1.415-1.414l1.414 1.414 1.414-1.414a1 1 0 0 1 1.414 0z" fill="#A1ABB8"/></g></svg>