<?xml version="1.0" encoding="UTF-8"?>
<svg width="14px" height="14px" viewBox="0 0 14 14" version="1.1" xmlns="http://www.w3.org/2000/svg" xmlns:xlink="http://www.w3.org/1999/xlink">
    <!-- Generator: sketchtool 58 (101010) - https://sketch.com -->
    <title>00415C77-10E7-4C41-9F5A-9EF36EDA7DBA</title>
    <desc>Created with sketchtool.</desc>
    <g id="Page-1" stroke="none" stroke-width="1" fill="none" fill-rule="evenodd">
        <g id="ATLM_врачи" transform="translate(-923.000000, -336.000000)" fill="#D3B258" fill-rule="nonzero">
            <g id="clock" transform="translate(923.000000, 336.000000)">
                <path d="M6.99988333,0 C3.1339989,0 0,3.13409223 0,6.99988333 C0,10.8656744 3.1339989,14 6.99988333,14 C10.8657678,14 14,10.8656744 14,6.99988333 C14,3.13409223 10.8657678,0 6.99988333,0 Z M10.0261271,8.33125885 L7.05845097,8.33125885 C7.04841747,8.33125885 7.03908398,8.32883215 7.02914382,8.32845881 C7.01920365,8.32892548 7.00991683,8.33125885 6.99983666,8.33125885 C6.73247887,8.33125885 6.5157086,8.11448857 6.5157086,7.84713079 L6.5157086,2.90500175 C6.5157086,2.63764396 6.73247887,2.42087368 6.99983666,2.42087368 C7.26719445,2.42087368 7.48396473,2.63764396 7.48396473,2.90500175 L7.48396473,7.36300272 L10.0259404,7.36300272 C10.2932982,7.36300272 10.5100685,7.579773 10.5100685,7.84713079 C10.5100685,8.11448857 10.2934849,8.33125885 10.0261271,8.33125885 Z" id="Shape"></path>
            </g>
        </g>
    </g>
</svg>