<svg height="18" viewBox="0 0 18 18" width="18" xmlns="http://www.w3.org/2000/svg"><g fill="none" fill-rule="evenodd" transform="translate(-7 -7)"><path d="m0 0h32v32h-32z"/><circle cx="15.69" cy="15.69" fill="#ffb3b3" r="7.89"/><g fill="#e26161"><path d="m15.69 24.38c-4.7993545 0-8.69-3.8906455-8.69-8.69s3.8906455-8.69 8.69-8.69 8.69 3.8906455 8.69 8.69c-.0055107 4.79707-3.89293 8.6844893-8.69 8.69zm0-15.78c-3.9156989 0-7.09 3.1743011-7.09 7.09s3.1743011 7.09 7.09 7.09 7.09-3.1743011 7.09-7.09c-.005508-3.9134151-3.1765849-7.08449202-7.09-7.09z" fill-rule="nonzero"/><rect height="1.63" rx=".64" transform="matrix(0 1 -1 0 30.092555 -1.302555)" width="5" x="13.197555" y="13.58"/><rect height="1.63" rx=".64" transform="matrix(0 1 -1 0 34.592555 3.197445)" width="2" x="14.697555" y="18.08"/></g></g></svg>
