<?xml version="1.0" encoding="UTF-8" standalone="no"?><!DOCTYPE svg PUBLIC "-//W3C//DTD SVG 1.1//EN" "http://www.w3.org/Graphics/SVG/1.1/DTD/svg11.dtd"><svg width="100%" height="100%" viewBox="0 0 128 60" version="1.1" xmlns="http://www.w3.org/2000/svg" xmlns:xlink="http://www.w3.org/1999/xlink" xml:space="preserve" style="fill-rule:evenodd;clip-rule:evenodd;"><g id="Group-11"><g id="Page-1-Copy"><g id="Group-3"><path id="Fill-1" d="M5.044,9.002c-1.042,0 -2.803,0 -3.885,1.042c-1.159,1.122 -1.159,2.994 -1.159,3.794l0,9.3c0,0.791 0,2.666 1.155,3.782c1.092,1.044 2.847,1.044 3.889,1.044l10.541,0c1.046,0 2.793,0 3.883,-1.034c1.16,-1.126 1.16,-3.001 1.16,-3.792l0,-2.685l-5.429,0l0,2.975l-9.768,0l0,-9.89l9.768,0l0,2.703l5.429,0l0,-2.403c0,-0.8 0,-2.672 -1.16,-3.794c-1.085,-1.042 -2.837,-1.042 -3.883,-1.042l-10.541,0Z" style="fill:#00437b;"/></g><path id="Fill-4" d="M31.611,23.429l12.232,0l0,-9.892l-12.232,0l0,9.892Zm-0.387,-14.428c-1.046,0 -2.796,0 -3.876,1.043c-1.158,1.123 -1.158,2.994 -1.158,3.793l0,9.301c0,0.792 0,2.665 1.155,3.792c1.089,1.034 2.833,1.034 3.879,1.034l13.008,0c1.047,0 2.795,0 3.881,-1.034c1.167,-1.127 1.167,-3 1.167,-3.792l0,-9.301c0,-0.799 0,-2.67 -1.158,-3.793c-1.085,-1.043 -2.843,-1.043 -3.89,-1.043l-13.008,0Z" style="fill:#00437b;"/><path id="Fill-6" d="M72.688,9.002l-17.299,0l0,18.962l5.428,0l0,-14.426l12.533,0l0,-4.536l-0.662,0Z" style="fill:#00437b;"/><path id="Fill-7" d="M82.93,14.474c0.696,1.304 2.096,3.926 2.738,5.126l-5.578,0c0.672,-1.208 2.123,-3.828 2.84,-5.126Zm2.167,-5.472l-4.36,0l-10.739,18.962l5.669,0c0,0 1.722,-3.25 2.024,-3.832l10.433,0c0.31,0.58 2.089,3.832 2.089,3.832l6.154,0l-10.891,-18.962l-0.379,0Z" style="fill:#00437b;"/><path id="Fill-8" d="M52.302,46.062c-0.035,-0.734 -0.122,-0.828 -0.939,-0.868l-2.357,0l-0.002,1.902l2.076,0c1.016,-0.034 1.187,-0.173 1.222,-1.034" style="fill:#00437b;"/><path id="Fill-9" d="M81.193,45.194l-2.3,0l0,2.343l1.713,0c1.249,-0.037 1.597,-0.14 1.633,-1.205c-0.045,-0.891 -0.089,-1.097 -1.046,-1.138" style="fill:#00437b;"/><path id="Fill-10" d="M43.455,45.127c-1.897,0.05 -1.969,0.222 -2.02,2.48c0.05,2.23 0.148,2.416 2.02,2.467c1.87,-0.051 1.945,-0.237 1.998,-2.467c-0.053,-2.258 -0.12,-2.43 -1.998,-2.48" style="fill:#00437b;"/><path id="Fill-11" d="M63.18,46.427c0.005,0.677 0.472,1.033 1.526,1.046l1.96,0l0,-2.279l-2.331,0c-0.945,0.029 -1.128,0.354 -1.155,1.233" style="fill:#00437b;"/><path id="Fill-12" d="M51.341,47.982l-2.336,0l0,2.021l2.009,0c1.209,-0.038 1.461,-0.055 1.489,-1.024c-0.044,-0.997 -0.138,-0.946 -1.162,-0.997" style="fill:#00437b;"/><path id="Fill-13" d="M103.702,9.002c-0.99,0 -2.349,0.149 -3.169,0.843c-1.117,0.971 -1.117,2.526 -1.117,3.032l0,3.364l4.813,0l0,-3.044l8.373,0c0.559,0 0.666,0.123 0.666,0.123c0.068,0.068 0.142,0.202 0.142,0.619l0,1.47c0,0.424 -0.089,0.54 -0.117,0.561c-0.1,0.103 -0.257,0.114 -0.565,0.114l-6.504,0l0,4.188l6.651,0c0.406,0 0.669,0.094 0.722,0.149c0.067,0.057 0.155,0.175 0.155,0.629l0,1.669c0,0.324 -0.08,0.522 -0.12,0.568c-0.071,0.071 -0.222,0.141 -0.757,0.141l-8.883,0l0,-2.975l-4.963,0l0,3.466c0,0.91 0.103,2.215 0.953,3.064c0.867,0.872 2.411,0.981 3.652,0.981l9.687,0c2.126,0 3.627,-0.385 4.571,-1.182c0.86,-0.705 1.292,-1.694 1.292,-2.931l0,-2.25c0,-1.381 -0.545,-2.251 -0.997,-2.748c-0.29,-0.302 -0.674,-0.516 -1.063,-0.725c0.265,-0.18 0.563,-0.34 0.773,-0.581c0.71,-0.792 0.802,-1.614 0.802,-2.315l0,-2.148c0,-1.013 -0.124,-2.155 -1.061,-3.017c-0.77,-0.704 -1.933,-1.065 -3.459,-1.065l-10.477,0Z" style="fill:#00437b;"/><path id="Fill-14" d="M0.001,1.208l119.183,0l0,-1.208l-119.183,0l0,1.208Z" style="fill:#00437b;"/><path id="Fill-15" d="M0.002,59.437l119.088,0l0,-23.679l-119.088,0l0,23.679Zm12.902,-10.788c0,0.827 -0.146,1.427 -0.612,1.805c-0.462,0.375 -1.185,0.503 -2.286,0.507c-1.057,-0.004 -1.795,-0.128 -2.273,-0.642c-0.471,-0.516 -0.637,-1.348 -0.637,-2.694c0,-1.343 0.162,-2.184 0.635,-2.714c0.471,-0.527 1.215,-0.669 2.275,-0.669c2.252,-0.04 2.744,0.745 2.802,2.187l0.01,0.148l-0.144,0l-0.873,0l-0.012,-0.117c-0.171,-1.096 -0.18,-1.287 -1.783,-1.333c-1.537,0.036 -1.824,0.322 -1.865,2.498c0.041,2.168 0.314,2.405 1.865,2.449c1.649,-0.046 1.832,-0.216 1.869,-1.425l0,-0.139l1.029,0l0,0.139Zm6.256,-4.204l0,0.749l-2.252,0l0,5.7l-0.141,0l-0.904,0l0,-5.7l-2.113,0l-0.135,0l0,-0.134l0,-0.751l5.545,0l0,0.136Zm6.049,3.497c-0.401,0.356 -1.013,0.482 -1.911,0.482l-1.935,0l0,2.466l-0.137,0l-0.904,0l0,-6.581l3.447,0c1.388,0.002 1.979,0.637 1.98,1.929c0,0.782 -0.138,1.341 -0.54,1.704Zm7.27,2.948l-0.924,0l-0.031,-0.088l-0.488,-1.21l-3.328,0l-0.56,1.298l-0.086,0l-1.041,0l2.611,-6.495l0.035,-0.084l1.309,0l2.701,6.579l-0.198,0Zm7.138,0.004l-1.015,0l-2.088,-2.811l-2.088,2.811l-0.066,0l-1.219,0l2.591,-3.407l-2.385,-3.178l1.266,0l1.901,2.6l1.901,-2.6l1.27,0l-2.39,3.178l2.598,3.407l-0.276,0Zm6.271,-0.58c-0.491,0.515 -1.26,0.643 -2.443,0.643c-1.173,0 -1.949,-0.128 -2.431,-0.643c-0.48,-0.525 -0.618,-1.363 -0.621,-2.709c0.003,-1.352 0.141,-2.195 0.621,-2.715c0.488,-0.52 1.267,-0.644 2.45,-0.648c1.168,0.004 1.936,0.128 2.424,0.65c0.475,0.526 0.605,1.361 0.611,2.713c-0.006,1.346 -0.136,2.184 -0.611,2.709Zm5.759,0.58l-3.682,0l0,-6.585l3.484,0c1.213,0.002 1.891,0.491 1.891,1.688c0.018,0.589 -0.07,1.119 -0.6,1.427c0.66,0.266 0.824,0.784 0.807,1.505c-0.002,1.157 -0.503,1.959 -1.9,1.965Zm9.325,0l-0.919,0l-0.035,-0.086l-0.487,-1.216l-3.329,0l-0.556,1.302l-0.089,0l-1.039,0l2.607,-6.499l0.037,-0.084l1.303,0l2.712,6.583l-0.205,0Zm6.74,-0.004l-0.138,0l-0.908,0l0,-2.529l-1.934,0l-1.552,2.529l-0.081,0l-1.189,0l1.67,-2.65c-0.831,-0.208 -1.45,-0.881 -1.447,-1.949c0.007,-1.382 0.888,-1.98 2.358,-1.982l3.221,0l0,6.581Zm9.038,-6.445l0,0.749l-3.526,0l0,5.696l-0.132,0l-0.772,0l-0.136,0l0,-6.581l4.566,0l0,0.136Zm5.99,3.495c-0.402,0.361 -1.016,0.478 -1.911,0.478l-1.936,0l0,2.472l-0.136,0l-0.909,0l0,-6.579l3.454,0c1.383,0 1.971,0.637 1.972,1.927c0,0.782 -0.132,1.341 -0.534,1.702Zm5.009,1.887c-0.297,0.692 -0.783,1.067 -1.411,1.067l-0.008,0l-0.864,0l0,-0.142l0,-0.749l0.59,0c0.441,-0.019 0.515,-0.063 0.676,-0.447l-2.629,-5.247l1.131,0l2.061,4.189l1.879,-4.189l1.098,0l-2.523,5.518Zm9.527,1.067l-0.137,0l-0.908,0l0,-5.7l-3.799,0l0,5.7l-0.132,0l-0.772,0l-0.138,0l0,-6.585l5.886,0l0,6.585Zm7.521,-0.004l-0.134,0l-0.912,0l0,-5.696l-3.79,0l0,5.696l-0.135,0l-0.773,0l-0.138,0l0,-6.581l5.882,0l0,6.581Zm7.622,0l-0.926,0l-0.027,-0.082l-0.492,-1.216l-3.328,0l-0.558,1.298l-0.083,0l-1.042,0l2.644,-6.583l1.309,0l2.704,6.583l-0.201,0Z" style="fill:#00437b;"/><path id="Fill-16" d="M56.499,48.707l2.669,0l-1.337,-3.366l-1.332,3.366Z" style="fill:#00437b;"/><path id="Fill-17" d="M107.947,48.707l2.669,0l-1.336,-3.369l-1.333,3.369Z" style="fill:#00437b;"/><path id="Fill-18" d="M28.003,48.707l2.672,0l-1.339,-3.366l-1.333,3.366Z" style="fill:#00437b;"/><path id="Fill-19" d="M23.679,45.148l-2.298,0l0,2.343l1.714,0c1.252,-0.037 1.599,-0.142 1.63,-1.205c-0.041,-0.891 -0.085,-1.1 -1.046,-1.138" style="fill:#00437b;"/></g><circle id="Oval-3" cx="125.5" cy="12.5" r="2.25" style="fill:none;stroke:#00437b;stroke-width:0.5px;"/><path id="R" d="M124.7,11.5l0.955,0c0.221,0 0.386,0.048 0.496,0.143c0.11,0.095 0.165,0.228 0.165,0.398c0,0.095 -0.014,0.174 -0.042,0.236c-0.028,0.063 -0.06,0.113 -0.098,0.152c-0.037,0.038 -0.074,0.065 -0.11,0.082c-0.037,0.017 -0.063,0.028 -0.08,0.034l0,0.005c0.03,0.004 0.062,0.013 0.096,0.028c0.035,0.015 0.067,0.039 0.097,0.072c0.03,0.033 0.055,0.075 0.074,0.127c0.02,0.053 0.03,0.118 0.03,0.196c0,0.118 0.008,0.225 0.026,0.321c0.018,0.096 0.046,0.165 0.083,0.206l-0.375,0c-0.027,-0.043 -0.042,-0.091 -0.047,-0.143c-0.004,-0.052 -0.007,-0.103 -0.007,-0.151c0,-0.092 -0.005,-0.171 -0.017,-0.237c-0.011,-0.066 -0.031,-0.121 -0.061,-0.165c-0.03,-0.044 -0.071,-0.076 -0.122,-0.097c-0.051,-0.02 -0.117,-0.031 -0.197,-0.031l-0.516,0l0,0.824l-0.35,0l0,-2Zm0.35,0.91l0.574,0c0.112,0 0.197,-0.026 0.255,-0.079c0.058,-0.054 0.087,-0.134 0.087,-0.24c0,-0.063 -0.009,-0.115 -0.028,-0.155c-0.019,-0.041 -0.044,-0.072 -0.077,-0.094c-0.033,-0.023 -0.07,-0.038 -0.112,-0.045c-0.042,-0.008 -0.085,-0.011 -0.13,-0.011l-0.569,0l0,0.624Z" style="fill:#00437b;"/></g></svg>