<?xml version="1.0" encoding="UTF-8"?>
<svg width="14px" height="11px" viewBox="0 0 14 11" version="1.1" xmlns="http://www.w3.org/2000/svg" xmlns:xlink="http://www.w3.org/1999/xlink">
    <!-- Generator: sketchtool 59 (101010) - https://sketch.com -->
    <title>248585ED-DAD9-4DC2-BDE5-60398B97FA54</title>
    <desc>Created with sketchtool.</desc>
    <defs>
        <polygon id="path-1" points="9 10.9998 22.5799 10.9998 22.5799 21.8088 9 21.8088"></polygon>
    </defs>
    <g id="Page-1" stroke="none" stroke-width="1" fill="none" fill-rule="evenodd">
        <g id="UI-Kit" transform="translate(-267.000000, -2817.000000)">
            <g id="mail" transform="translate(258.000000, 2806.000000)">
                <rect id="Rectangle" x="0" y="0" width="32" height="32"></rect>
                <mask id="mask-2" fill="white">
                    <use xlink:href="#path-1"></use>
                </mask>
                <g id="Clip-2"></g>
                <path d="M21.4719,19.2265 C21.4719,20.0385 20.8109,20.7005 19.9979,20.7005 L11.5819,20.7005 C10.7699,20.7005 10.1089,20.0385 10.1089,19.2265 L10.1089,13.5815 C10.1089,13.4275 10.1389,13.2805 10.1839,13.1405 L15.5929,17.2615 C15.6929,17.3365 15.8109,17.3745 15.9289,17.3745 C16.0509,17.3745 16.1739,17.3335 16.2749,17.2525 L21.4009,13.1525 C21.4429,13.2895 21.4719,13.4315 21.4719,13.5815 L21.4719,19.2265 Z M19.9979,12.1085 C20.2529,12.1085 20.4899,12.1795 20.6999,12.2935 L15.9199,16.1175 L10.8939,12.2875 C11.0999,12.1765 11.3319,12.1085 11.5819,12.1085 L19.9979,12.1085 Z M19.9979,10.9995 L11.5819,10.9995 C10.1589,10.9995 8.9999,12.1585 8.9999,13.5815 L8.9999,19.2265 C8.9999,20.6505 10.1589,21.8095 11.5819,21.8095 L19.9979,21.8095 C21.4219,21.8095 22.5799,20.6505 22.5799,19.2265 L22.5799,13.5815 C22.5799,12.1585 21.4219,10.9995 19.9979,10.9995 L19.9979,10.9995 Z" id="Fill-1" fill="#B7BCC2" mask="url(#mask-2)"></path>
            </g>
        </g>
    </g>
</svg>