<?xml version="1.0" encoding="UTF-8"?>
<svg width="21px" height="24px" viewBox="0 0 21 24" version="1.1" xmlns="http://www.w3.org/2000/svg" xmlns:xlink="http://www.w3.org/1999/xlink">
    <!-- Generator: sketchtool 59 (101010) - https://sketch.com -->
    <title>D15C04A3-0371-4489-A1BE-D58B68CDA075</title>
    <desc>Created with sketchtool.</desc>
    <g id="Page-1" stroke="none" stroke-width="1" fill="none" fill-rule="evenodd">
        <g id="UI-Kit" transform="translate(-239.000000, -2722.000000)">
            <g id="Notification" transform="translate(234.000000, 2718.000000)">
                <rect id="Rectangle" x="0" y="0" width="32" height="32"></rect>
                <path d="M22.2925257,23.3002118 C20.6745217,21.8157261 19.1772045,19.7212852 19.1772045,14.492097 C19.1772045,11.4637297 16.854867,9 14.0003141,9 C11.1453686,9 8.822717,11.4637297 8.822717,14.492097 C8.822717,19.7260335 7.32594945,21.8183919 5.70653208,23.3016279 C5.25754892,23.7164842 5,24.3139439 5,24.9408933 C5,25.2859404 5.26367356,25.5656768 5.5889076,25.5656768 L11.1776407,25.5656768 C11.4502657,26.9537792 12.6120626,28 14,28 C15.3879374,28 16.5498129,26.9538625 16.8223593,25.5656768 L22.4110924,25.5656768 C22.7363264,25.5656768 23,25.2859404 23,24.9408933 C23,24.3088623 22.7418229,23.7104863 22.2925257,23.3002118 Z M14,26.750433 C13.2666137,26.750433 12.6399375,26.2565208 12.3996632,25.5656768 L15.6003368,25.5656768 C15.3600625,26.2565208 14.7333863,26.750433 14,26.750433 Z M6.40976627,24.3161098 C6.43120251,24.2914516 6.45405212,24.2679598 6.47815807,24.2457175 C8.94709429,21.9843344 10.0004537,19.0673451 10.0004537,14.492097 C10.0004537,12.1527409 11.7948159,10.249567 14.0002356,10.249567 C16.2053412,10.249567 17.9993108,12.1527409 17.9993108,14.492097 C17.9993108,19.0631799 19.0528272,21.9800858 21.5230197,24.2463006 C21.5471257,24.2683763 21.5699753,24.2916183 21.5914901,24.3161098 L6.40976627,24.3161098 L6.40976627,24.3161098 Z" id="Shape" fill="#ABABB0" fill-rule="nonzero"></path>
                <circle id="Oval" fill="#2D91FF" cx="22.5" cy="7.5" r="3.5"></circle>
            </g>
        </g>
    </g>
</svg>